<svg viewBox="0 0 32 32" xmlns="http://www.w3.org/2000/svg"><g data-name="Layer 2"><path d="M26 27H6a3 3 0 0 1-3-3V8a3 3 0 0 1 3-3h20a3 3 0 0 1 3 3v16a3 3 0 0 1-3 3ZM6 7a1 1 0 0 0-1 1v16a1 1 0 0 0 1 1h20a1 1 0 0 0 1-1V8a1 1 0 0 0-1-1Z" fill="#27374d" class="fill-000000"></path><path d="M21 15a3 3 0 1 1 3-3 3 3 0 0 1-3 3Zm0-4a1 1 0 1 0 1 1 1 1 0 0 0-1-1ZM26 27a1 1 0 0 1-.83-.45l-4.34-6.5a1 1 0 0 0-1.66 0l-.34.5a1 1 0 0 1-1.66-1.1l.33-.51a3 3 0 0 1 5 0l4.33 6.51a1 1 0 0 1-.28 1.38.94.94 0 0 1-.55.17Z" fill="#27374d" class="fill-000000"></path><path d="M6 27a1 1 0 0 1-.54-.16 1 1 0 0 1-.3-1.38l6.23-9.62a3 3 0 0 1 2.5-1.37 3 3 0 0 1 2.5 1.34l6.42 9.64a1 1 0 0 1-1.66 1.1l-6.43-9.63a1 1 0 0 0-.83-.45 1 1 0 0 0-.83.46l-6.22 9.61A1 1 0 0 1 6 27Z" fill="#27374d" class="fill-000000"></path></g><path d="M0 0h32v32H0z" fill="none"></path></svg>